<svg width="42" height="128" viewBox="0 0 42 128" fill="none" xmlns="http://www.w3.org/2000/svg">
<path d="M17.44 14.4C17.44 12 17.04 10.3467 16.24 9.44C15.4933 8.48 14.3733 8 12.88 8C9.84 8 8.32 9.84 8.32 13.52V19.52H0V14.08C0 9.54667 1.12 6.08 3.36 3.68C5.6 1.22667 8.85333 0 13.12 0C17.3867 0 20.64 1.22667 22.88 3.68C25.12 6.08 26.24 9.54667 26.24 14.08C26.24 17.2267 25.7067 20.1333 24.64 22.8C23.6267 25.4133 22.4 27.68 20.96 29.6C19.52 31.52 17.6533 33.7333 15.36 36.24C13.0667 38.8 11.3867 40.88 10.32 42.48C9.25333 44.08 8.72 45.7333 8.72 47.44C8.72 47.9733 8.74667 48.3733 8.8 48.64H25.44V56.64H0V49.76C0 47.1467 0.4 44.8267 1.2 42.8C2 40.72 2.98667 38.9067 4.16 37.36C5.33333 35.8133 6.88 34 8.8 31.92C10.7733 29.7333 12.32 27.92 13.44 26.48C14.56 24.9867 15.4933 23.2267 16.24 21.2C17.04 19.1733 17.44 16.9067 17.44 14.4Z" fill="url(#paint0_linear_381_34699)"/>
<path opacity="0.25" d="M36.5 9H37.5V127.5C37.5 127.776 37.2761 128 37 128C36.7239 128 36.5 127.776 36.5 127.5V9Z" fill="url(#paint1_linear_381_34699)"/>
<path opacity="0.25" d="M37.0101 0.00120308C36.4019 -0.00139363 36.1706 0.757393 36.1687 1.21325L36.2708 3.98686L34.9762 4.51317L34.9781 4.05732C34.9788 3.90537 34.8652 3.79091 34.7132 3.79027C34.5993 3.75179 34.5226 3.90342 34.4841 4.01722L34.4812 4.701L33.4913 5.07666L33.4929 4.69678C33.4936 4.54483 33.38 4.43038 33.2658 4.46788C33.1138 4.46723 32.9993 4.58071 32.9986 4.73266L32.996 5.34047L32.7295 5.4533C32.2727 5.6033 31.967 5.98188 32.0029 6.47589L36.4122 6.49472L36.4425 8.28032L35.0308 9.52791L35.1048 9.98409L36.9695 9.4982L38.83 10L38.9079 9.54447L37.5069 8.28486L37.5907 6.46176L42 6.48059C42.0019 6.02473 41.6998 5.56758 41.2822 5.45183L41.0166 5.33673L41.0192 4.72892C41.0198 4.57697 40.9063 4.46251 40.7542 4.46187C40.6022 4.46122 40.4877 4.57469 40.487 4.72665L40.4854 5.10653L39.4609 4.68428L39.4638 4.00049C39.4644 3.84854 39.3509 3.73409 39.1988 3.73344C39.0468 3.73279 38.9323 3.84627 38.9698 3.96039L38.9679 4.41625L37.6777 3.8789L37.8415 1.14441C37.8813 0.726708 37.5804 -0.0343505 37.0101 0.00120308Z" fill="url(#paint2_linear_381_34699)"/>
<defs>
<linearGradient id="paint0_linear_381_34699" x1="-1.91127e-07" y1="35.7078" x2="26.2356" y2="36.0471" gradientUnits="userSpaceOnUse">
<stop stop-color="#79CFFF"/>
<stop offset="1" stop-color="#00AEFF"/>
</linearGradient>
<linearGradient id="paint1_linear_381_34699" x1="36.5" y1="84.0218" x2="37.5" y2="84.022" gradientUnits="userSpaceOnUse">
<stop stop-color="#79CFFF"/>
<stop offset="1" stop-color="#00AEFF"/>
</linearGradient>
<linearGradient id="paint2_linear_381_34699" x1="32" y1="6.30435" x2="41.9922" y2="6.5833" gradientUnits="userSpaceOnUse">
<stop stop-color="#79CFFF"/>
<stop offset="1" stop-color="#00AEFF"/>
</linearGradient>
</defs>
</svg>
