<svg width="27" height="58" viewBox="0 0 27 58" fill="none" xmlns="http://www.w3.org/2000/svg">
<path d="M17.4402 14.4C17.4402 12 17.0402 10.3467 16.2402 9.44C15.4936 8.48 14.3736 8 12.8802 8C9.84024 8 8.32024 9.84 8.32024 13.52V17.12H0.000244141V14.08C0.000244141 9.54667 1.12024 6.08 3.36024 3.68C5.60024 1.22667 8.85358 0 13.1202 0C17.3869 0 20.6402 1.22667 22.8802 3.68C25.1202 6.08 26.2402 9.54667 26.2402 14.08V15.52C26.2402 18.56 25.7336 21.04 24.7202 22.96C23.7069 24.8267 22.1602 26.1867 20.0802 27.04C24.1869 28.8533 26.2402 32.7733 26.2402 38.8V43.2C26.2402 47.7333 25.1202 51.2267 22.8802 53.68C20.6402 56.08 17.3869 57.28 13.1202 57.28C8.85358 57.28 5.60024 56.08 3.36024 53.68C1.12024 51.2267 0.000244141 47.7333 0.000244141 43.2V38.56H8.32024V43.76C8.32024 47.44 9.84024 49.28 12.8802 49.28C14.3736 49.28 15.4936 48.8267 16.2402 47.92C17.0402 46.96 17.4402 45.3067 17.4402 42.96V38.56C17.4402 36 16.9869 34.1867 16.0802 33.12C15.1736 32 13.7069 31.44 11.6802 31.44H8.72024V23.44H12.1602C13.9202 23.44 15.2269 22.9867 16.0802 22.08C16.9869 21.1733 17.4402 19.6533 17.4402 17.52V14.4Z" fill="url(#paint0_linear_381_34721)"/>
<defs>
<linearGradient id="paint0_linear_381_34721" x1="0.000243949" y1="36.1113" x2="26.236" y2="36.4468" gradientUnits="userSpaceOnUse">
<stop stop-color="#79CFFF"/>
<stop offset="1" stop-color="#00AEFF"/>
</linearGradient>
</defs>
</svg>
