<svg width="32" height="128" viewBox="0 0 32 128" fill="none" xmlns="http://www.w3.org/2000/svg">
<path opacity="0.25" d="M27.0101 0.00120308C26.4019 -0.00139363 26.1706 0.757393 26.1687 1.21325L26.2708 3.98686L24.9762 4.51317L24.9781 4.05732C24.9788 3.90537 24.8652 3.79091 24.7132 3.79027C24.5993 3.75179 24.5226 3.90342 24.4841 4.01722L24.4812 4.701L23.4913 5.07666L23.4929 4.69678C23.4936 4.54483 23.38 4.43038 23.2658 4.46788C23.1138 4.46723 22.9993 4.58071 22.9986 4.73266L22.996 5.34047L22.7295 5.4533C22.2727 5.6033 21.967 5.98188 22.0029 6.47589L26.4122 6.49472L26.4425 8.28032L25.0308 9.52791L25.1048 9.98409L26.9695 9.4982L28.83 10L28.9079 9.54447L27.5069 8.28486L27.5907 6.46176L32 6.48059C32.0019 6.02473 31.6998 5.56758 31.2822 5.45183L31.0166 5.33673L31.0192 4.72892C31.0198 4.57697 30.9063 4.46251 30.7542 4.46187C30.6022 4.46122 30.4877 4.57469 30.487 4.72665L30.4854 5.10653L29.4609 4.68428L29.4638 4.00049C29.4644 3.84854 29.3509 3.73409 29.1988 3.73344C29.0468 3.73279 28.9323 3.84627 28.9698 3.96039L28.9679 4.41625L27.6777 3.8789L27.8415 1.14441C27.8813 0.726708 27.5804 -0.0343505 27.0101 0.00120308Z" fill="url(#paint0_linear_381_34733)"/>
<path opacity="0.25" d="M26.5 9H27.5V127.5C27.5 127.776 27.2761 128 27 128C26.7239 128 26.5 127.776 26.5 127.5V9Z" fill="url(#paint1_linear_381_34733)"/>
<path d="M0 7.04C2.13333 7.04 3.81333 6.74667 5.04 6.16C6.32 5.52 7.25333 4.72 7.84 3.76C8.48 2.8 9.09333 1.54667 9.68 0H15.6V56H6.8V13.28H0V7.04Z" fill="url(#paint2_linear_381_34733)"/>
<defs>
<linearGradient id="paint0_linear_381_34733" x1="22" y1="6.30435" x2="31.9922" y2="6.5833" gradientUnits="userSpaceOnUse">
<stop stop-color="#79CFFF"/>
<stop offset="1" stop-color="#00AEFF"/>
</linearGradient>
<linearGradient id="paint1_linear_381_34733" x1="26.5" y1="84.0218" x2="27.5" y2="84.022" gradientUnits="userSpaceOnUse">
<stop stop-color="#79CFFF"/>
<stop offset="1" stop-color="#00AEFF"/>
</linearGradient>
<linearGradient id="paint2_linear_381_34733" x1="-1.13627e-07" y1="35.3044" x2="15.5991" y2="35.4257" gradientUnits="userSpaceOnUse">
<stop stop-color="#79CFFF"/>
<stop offset="1" stop-color="#00AEFF"/>
</linearGradient>
</defs>
</svg>
