<svg width="27" height="57" viewBox="0 0 27 57" fill="none" xmlns="http://www.w3.org/2000/svg">
<path d="M17.44 14.4C17.44 12 17.04 10.3467 16.24 9.44C15.4933 8.48 14.3733 8 12.88 8C9.84 8 8.32 9.84 8.32 13.52V19.52H0V14.08C0 9.54667 1.12 6.08 3.36 3.68C5.6 1.22667 8.85333 0 13.12 0C17.3867 0 20.64 1.22667 22.88 3.68C25.12 6.08 26.24 9.54667 26.24 14.08C26.24 17.2267 25.7067 20.1333 24.64 22.8C23.6267 25.4133 22.4 27.68 20.96 29.6C19.52 31.52 17.6533 33.7333 15.36 36.24C13.0667 38.8 11.3867 40.88 10.32 42.48C9.25333 44.08 8.72 45.7333 8.72 47.44C8.72 47.9733 8.74667 48.3733 8.8 48.64H25.44V56.64H0V49.76C0 47.1467 0.4 44.8267 1.2 42.8C2 40.72 2.98667 38.9067 4.16 37.36C5.33333 35.8133 6.88 34 8.8 31.92C10.7733 29.7333 12.32 27.92 13.44 26.48C14.56 24.9867 15.4933 23.2267 16.24 21.2C17.04 19.1733 17.44 16.9067 17.44 14.4Z" fill="url(#paint0_linear_381_34700)"/>
<defs>
<linearGradient id="paint0_linear_381_34700" x1="-1.91127e-07" y1="35.7078" x2="26.2356" y2="36.0471" gradientUnits="userSpaceOnUse">
<stop stop-color="#79CFFF"/>
<stop offset="1" stop-color="#00AEFF"/>
</linearGradient>
</defs>
</svg>
