<svg width="10" height="10" viewBox="0 0 10 10" fill="none" xmlns="http://www.w3.org/2000/svg">
<path opacity="0.25" d="M5.01011 0.00120308C4.40193 -0.00139363 4.17061 0.757393 4.16866 1.21325L4.27084 3.98686L2.97618 4.51317L2.97813 4.05732C2.97878 3.90537 2.86524 3.79091 2.71319 3.79027C2.59932 3.75179 2.52265 3.90342 2.48415 4.01722L2.48122 4.701L1.49131 5.07666L1.49293 4.69678C1.49358 4.54483 1.38003 4.43038 1.26584 4.46788C1.11379 4.46723 0.999271 4.58071 0.998622 4.73266L0.996023 5.34047L0.729457 5.4533C0.272672 5.6033 -0.0330423 5.98188 0.00285781 6.47589L4.41217 6.49472L4.44255 8.28032L3.03077 9.52791L3.10484 9.98409L4.96951 9.4982L6.82995 10L6.90792 9.54447L5.50686 8.28486L5.59068 6.46176L9.99999 6.48059C10.0019 6.02473 9.6998 5.56758 9.28216 5.45183L9.01657 5.33673L9.01917 4.72892C9.01982 4.57697 8.90627 4.46251 8.75422 4.46187C8.60218 4.46122 8.48766 4.57469 8.48701 4.72665L8.48538 5.10653L7.46087 4.68428L7.46379 4.00049C7.46444 3.84854 7.35089 3.73409 7.19885 3.73344C7.0468 3.73279 6.93228 3.84627 6.96981 3.96039L6.96786 4.41625L5.67775 3.8789L5.84148 1.14441C5.88128 0.726708 5.58044 -0.0343505 5.01011 0.00120308Z" fill="url(#paint0_linear_381_34734)"/>
<defs>
<linearGradient id="paint0_linear_381_34734" x1="-7.2838e-08" y1="6.30435" x2="9.99221" y2="6.5833" gradientUnits="userSpaceOnUse">
<stop stop-color="#79CFFF"/>
<stop offset="1" stop-color="#00AEFF"/>
</linearGradient>
</defs>
</svg>
