<svg width="42" height="167" viewBox="0 0 42 167" fill="none" xmlns="http://www.w3.org/2000/svg">
<path d="M17.4402 14.4C17.4402 12 17.0402 10.3467 16.2402 9.44C15.4936 8.48 14.3736 8 12.8802 8C9.84024 8 8.32024 9.84 8.32024 13.52V17.12H0.000244141V14.08C0.000244141 9.54667 1.12024 6.08 3.36024 3.68C5.60024 1.22667 8.85358 0 13.1202 0C17.3869 0 20.6402 1.22667 22.8802 3.68C25.1202 6.08 26.2402 9.54667 26.2402 14.08V15.52C26.2402 18.56 25.7336 21.04 24.7202 22.96C23.7069 24.8267 22.1602 26.1867 20.0802 27.04C24.1869 28.8533 26.2402 32.7733 26.2402 38.8V43.2C26.2402 47.7333 25.1202 51.2267 22.8802 53.68C20.6402 56.08 17.3869 57.28 13.1202 57.28C8.85358 57.28 5.60024 56.08 3.36024 53.68C1.12024 51.2267 0.000244141 47.7333 0.000244141 43.2V38.56H8.32024V43.76C8.32024 47.44 9.84024 49.28 12.8802 49.28C14.3736 49.28 15.4936 48.8267 16.2402 47.92C17.0402 46.96 17.4402 45.3067 17.4402 42.96V38.56C17.4402 36 16.9869 34.1867 16.0802 33.12C15.1736 32 13.7069 31.44 11.6802 31.44H8.72024V23.44H12.1602C13.9202 23.44 15.2269 22.9867 16.0802 22.08C16.9869 21.1733 17.4402 19.6533 17.4402 17.52V14.4Z" fill="url(#paint0_linear_381_34720)"/>
<path opacity="0.25" d="M36.5002 9H37.5002V166.5C37.5002 166.776 37.2764 167 37.0002 167C36.7241 167 36.5002 166.776 36.5002 166.5V9Z" fill="url(#paint1_linear_381_34720)"/>
<path opacity="0.25" d="M37.0104 0.00120308C36.4022 -0.00139363 36.1709 0.757393 36.1689 1.21325L36.2711 3.98686L34.9764 4.51317L34.9784 4.05732C34.979 3.90537 34.8655 3.79091 34.7134 3.79027C34.5996 3.75179 34.5229 3.90342 34.4844 4.01722L34.4815 4.701L33.4916 5.07666L33.4932 4.69678C33.4938 4.54483 33.3803 4.43038 33.2661 4.46788C33.114 4.46723 32.9995 4.58071 32.9989 4.73266L32.9963 5.34047L32.7297 5.4533C32.2729 5.6033 31.9672 5.98188 32.0031 6.47589L36.4124 6.49472L36.4428 8.28032L35.031 9.52791L35.1051 9.98409L36.9698 9.4982L38.8302 10L38.9082 9.54447L37.5071 8.28486L37.5909 6.46176L42.0002 6.48059C42.0022 6.02473 41.7 5.56758 41.2824 5.45183L41.0168 5.33673L41.0194 4.72892C41.0201 4.57697 40.9065 4.46251 40.7545 4.46187C40.6024 4.46122 40.4879 4.57469 40.4873 4.72665L40.4856 5.10653L39.4611 4.68428L39.464 4.00049C39.4647 3.84854 39.3511 3.73409 39.1991 3.73344C39.047 3.73279 38.9325 3.84627 38.97 3.96039L38.9681 4.41625L37.678 3.8789L37.8417 1.14441C37.8815 0.726708 37.5807 -0.0343505 37.0104 0.00120308Z" fill="url(#paint2_linear_381_34720)"/>
<defs>
<linearGradient id="paint0_linear_381_34720" x1="0.000243949" y1="36.1113" x2="26.236" y2="36.4468" gradientUnits="userSpaceOnUse">
<stop stop-color="#79CFFF"/>
<stop offset="1" stop-color="#00AEFF"/>
</linearGradient>
<linearGradient id="paint1_linear_381_34720" x1="36.5002" y1="108.609" x2="37.5002" y2="108.609" gradientUnits="userSpaceOnUse">
<stop stop-color="#79CFFF"/>
<stop offset="1" stop-color="#00AEFF"/>
</linearGradient>
<linearGradient id="paint2_linear_381_34720" x1="32.0002" y1="6.30435" x2="41.9925" y2="6.5833" gradientUnits="userSpaceOnUse">
<stop stop-color="#79CFFF"/>
<stop offset="1" stop-color="#00AEFF"/>
</linearGradient>
</defs>
</svg>
