<svg width="46" height="167" viewBox="0 0 46 167" fill="none" xmlns="http://www.w3.org/2000/svg">
<path d="M16 0H25.6V37.84H29.76V45.84H25.6V56H16.96V45.84H0V37.84L16 0ZM16.96 16.8L8.08 37.84H16.96V16.8Z" fill="url(#paint0_linear_381_34686)"/>
<path opacity="0.25" d="M40.5005 9H41.5005V166.5C41.5005 166.776 41.2766 167 41.0005 167C40.7243 167 40.5005 166.776 40.5005 166.5V9Z" fill="url(#paint1_linear_381_34686)"/>
<path opacity="0.25" d="M41.0106 0.00120308C40.4024 -0.00139363 40.1711 0.757393 40.1692 1.21325L40.2713 3.98686L38.9767 4.51317L38.9786 4.05732C38.9793 3.90537 38.8657 3.79091 38.7137 3.79027C38.5998 3.75179 38.5231 3.90342 38.4846 4.01722L38.4817 4.701L37.4918 5.07666L37.4934 4.69678C37.4941 4.54483 37.3805 4.43038 37.2663 4.46788C37.1143 4.46723 36.9998 4.58071 36.9991 4.73266L36.9965 5.34047L36.7299 5.4533C36.2732 5.6033 35.9674 5.98188 36.0033 6.47589L40.4127 6.49472L40.443 8.28032L39.0313 9.52791L39.1053 9.98409L40.97 9.4982L42.8304 10L42.9084 9.54447L41.5074 8.28486L41.5912 6.46176L46.0005 6.48059C46.0024 6.02473 45.7003 5.56758 45.2826 5.45183L45.0171 5.33673L45.0197 4.72892C45.0203 4.57697 44.9068 4.46251 44.7547 4.46187C44.6027 4.46122 44.4881 4.57469 44.4875 4.72665L44.4859 5.10653L43.4614 4.68428L43.4643 4.00049C43.4649 3.84854 43.3514 3.73409 43.1993 3.73344C43.0473 3.73279 42.9328 3.84627 42.9703 3.96039L42.9683 4.41625L41.6782 3.8789L41.842 1.14441C41.8818 0.726708 41.5809 -0.0343505 41.0106 0.00120308Z" fill="url(#paint2_linear_381_34686)"/>
<defs>
<linearGradient id="paint0_linear_381_34686" x1="-2.16766e-07" y1="35.3044" x2="29.7535" y2="35.7458" gradientUnits="userSpaceOnUse">
<stop stop-color="#79CFFF"/>
<stop offset="1" stop-color="#00AEFF"/>
</linearGradient>
<linearGradient id="paint1_linear_381_34686" x1="40.5005" y1="108.609" x2="41.5005" y2="108.609" gradientUnits="userSpaceOnUse">
<stop stop-color="#79CFFF"/>
<stop offset="1" stop-color="#00AEFF"/>
</linearGradient>
<linearGradient id="paint2_linear_381_34686" x1="36.0005" y1="6.30435" x2="45.9927" y2="6.5833" gradientUnits="userSpaceOnUse">
<stop stop-color="#79CFFF"/>
<stop offset="1" stop-color="#00AEFF"/>
</linearGradient>
</defs>
</svg>
