<svg width="19" height="19" viewBox="0 0 19 19" fill="none" xmlns="http://www.w3.org/2000/svg">
<path d="M9.54224 0.00214993C8.38669 -0.00495526 7.94446 1.43543 7.93913 2.30126L8.12335 7.56972L5.66158 8.56475L5.66691 7.69892C5.66869 7.41031 5.45336 7.19252 5.16447 7.19075C4.94825 7.11726 4.80203 7.40499 4.72847 7.621L4.72047 8.91974L2.83826 9.62972L2.8427 8.9082C2.84448 8.61959 2.62915 8.4018 2.41204 8.47262C2.12315 8.47084 1.90515 8.68597 1.90337 8.97458L1.89626 10.129L1.38937 10.3424C0.520931 10.6256 -0.0612891 11.3436 0.00515415 12.282L8.3829 12.3336L8.43423 15.7252L5.74735 18.0898L5.88646 18.9565L9.43111 18.0403L12.9642 19L13.114 18.1351L10.4564 15.7376L10.6222 12.2752L19 12.3267C19.0053 11.4609 18.4329 10.5915 17.6397 10.3701L17.1355 10.1506L17.1426 8.99612C17.1444 8.70751 16.9291 8.48972 16.6402 8.48795C16.3513 8.48617 16.1333 8.7013 16.1315 8.98991L16.1271 9.71143L14.182 8.90576L14.19 7.60702C14.1918 7.31841 13.9764 7.10062 13.6875 7.09884C13.3987 7.09707 13.1807 7.31219 13.2515 7.52909L13.2462 8.39492L10.7969 7.36969L11.1178 2.17649C11.1949 1.38326 10.626 -0.0633414 9.54224 0.00214993Z" fill="white"/>
</svg>
