<svg width="101" height="101" viewBox="0 0 101 101" fill="none" xmlns="http://www.w3.org/2000/svg">
<circle cx="50.5" cy="50.5" r="50.5" fill="url(#paint0_linear_386_9849)"/>
<path d="M42.6853 63.6862C42.2453 63.6854 41.8131 63.57 41.4312 63.3515C40.5712 62.8642 40.0366 61.9182 40.0366 60.8913V40.1085C40.0366 39.0787 40.5712 38.1356 41.4312 37.6483C41.8222 37.4236 42.2664 37.308 42.7173 37.3137C43.1683 37.3193 43.6094 37.446 43.9947 37.6805L61.7567 48.3127C62.1269 48.5448 62.4321 48.8671 62.6436 49.2495C62.8551 49.6318 62.9661 50.0615 62.9661 50.4985C62.9661 50.9354 62.8551 51.3652 62.6436 51.7475C62.4321 52.1298 62.1269 52.4521 61.7567 52.6842L43.9918 63.3193C43.5976 63.5576 43.146 63.6844 42.6853 63.6862Z" fill="white"/>
<defs>
<linearGradient id="paint0_linear_386_9849" x1="-7.35664e-07" y1="63.6739" x2="100.921" y2="66.4913" gradientUnits="userSpaceOnUse">
<stop stop-color="#79CFFF"/>
<stop offset="1" stop-color="#00AEFF"/>
</linearGradient>
</defs>
</svg>
