<svg width="301" height="13" viewBox="0 0 301 13" fill="none" xmlns="http://www.w3.org/2000/svg">
<rect y="7" width="129" height="1" fill="url(#paint0_linear_388_10582)"/>
<rect x="172" y="7" width="129" height="1" fill="url(#paint1_linear_388_10582)"/>
<path d="M150.512 0.00156798C149.722 -0.00174508 149.421 0.984715 149.419 1.57734L149.552 5.18307L147.869 5.86742L147.871 5.2748C147.872 5.07726 147.725 4.92848 147.527 4.92766C147.379 4.87765 147.279 5.07478 147.229 5.22272L147.225 6.11166L145.939 6.60012L145.941 6.10627C145.941 5.90873 145.794 5.75996 145.645 5.80872C145.448 5.80789 145.299 5.95543 145.298 6.15297L145.295 6.94313L144.948 7.08983C144.354 7.28489 143.957 7.77708 144.004 8.4193L149.736 8.44332L149.776 10.7646L147.94 12.3867L148.037 12.9797L150.461 12.3478L152.879 13L152.981 12.4078L151.159 10.7704L151.268 8.40035L157 8.42437C157.002 7.83175 156.61 7.23747 156.067 7.08704L155.721 6.93743L155.725 6.14727C155.726 5.94973 155.578 5.80095 155.38 5.80013C155.183 5.7993 155.034 5.94683 155.033 6.14437L155.031 6.63822L153.699 6.0894L153.703 5.20046C153.704 5.00292 153.556 4.85415 153.358 4.85332C153.161 4.85249 153.012 5.00002 153.06 5.14839L153.058 5.74101L151.381 5.04258L151.593 1.48768C151.645 0.944647 151.254 -0.0447112 150.512 0.00156798Z" fill="url(#paint2_linear_388_10582)"/>
<defs>
<linearGradient id="paint0_linear_388_10582" x1="-9.39611e-07" y1="7.63043" x2="9.23457" y2="40.8867" gradientUnits="userSpaceOnUse">
<stop stop-color="#79CFFF"/>
<stop offset="1" stop-color="#00AEFF"/>
</linearGradient>
<linearGradient id="paint1_linear_388_10582" x1="172" y1="7.63043" x2="181.235" y2="40.8867" gradientUnits="userSpaceOnUse">
<stop stop-color="#79CFFF"/>
<stop offset="1" stop-color="#00AEFF"/>
</linearGradient>
<linearGradient id="paint2_linear_388_10582" x1="144" y1="8.19565" x2="156.99" y2="8.55829" gradientUnits="userSpaceOnUse">
<stop stop-color="#79CFFF"/>
<stop offset="1" stop-color="#00AEFF"/>
</linearGradient>
</defs>
</svg>
