<svg width="65" height="27" viewBox="0 0 65 27" fill="none" xmlns="http://www.w3.org/2000/svg">
<path d="M3.795 16.775C4.30833 17.685 4.86833 18.4783 5.475 19.155C6.105 19.8317 6.79333 20.3567 7.54 20.73C8.28667 21.1033 9.09167 21.29 9.955 21.29C10.9583 21.29 11.775 21.0333 12.405 20.52C13.035 20.0067 13.35 19.3067 13.35 18.42C13.35 17.65 13.1517 17.0317 12.755 16.565C12.3817 16.0983 11.81 15.69 11.04 15.34C10.2933 14.9667 9.37167 14.57 8.275 14.15C7.69167 13.94 7.015 13.66 6.245 13.31C5.49833 12.9367 4.78667 12.47 4.11 11.91C3.43333 11.3267 2.87333 10.6267 2.43 9.81C1.98667 8.97 1.765 7.96667 1.765 6.8C1.765 5.4 2.115 4.19833 2.815 3.195C3.53833 2.16833 4.50667 1.38666 5.72 0.849998C6.95667 0.289998 8.33333 0.00999838 9.85 0.00999838C11.4133 0.00999838 12.755 0.278332 13.875 0.814998C15.0183 1.32833 15.9633 1.99333 16.71 2.81C17.48 3.60333 18.075 4.43167 18.495 5.295L14.575 7.465C14.2483 6.88167 13.8517 6.35667 13.385 5.89C12.9417 5.4 12.4283 5.015 11.845 4.735C11.2617 4.43167 10.5967 4.28 9.85 4.28C8.87 4.28 8.135 4.51333 7.645 4.98C7.155 5.42333 6.91 5.94833 6.91 6.555C6.91 7.16167 7.10833 7.69833 7.505 8.165C7.90167 8.60833 8.50833 9.04 9.325 9.46C10.1417 9.85667 11.1683 10.265 12.405 10.685C13.1983 10.965 13.9567 11.315 14.68 11.735C15.4267 12.155 16.0917 12.6683 16.675 13.275C17.2817 13.8583 17.7483 14.5583 18.075 15.375C18.425 16.1683 18.6 17.09 18.6 18.14C18.6 19.33 18.3667 20.3917 17.9 21.325C17.4333 22.2583 16.7917 23.0517 15.975 23.705C15.1583 24.335 14.2367 24.8133 13.21 25.14C12.2067 25.49 11.145 25.665 10.025 25.665C8.53167 25.665 7.13167 25.385 5.825 24.825C4.54167 24.2417 3.42167 23.46 2.465 22.48C1.50833 21.5 0.761667 20.4383 0.225 19.295L3.795 16.775ZM32.4805 16.46L39.0955 0.499998H44.9055L32.4805 26.435L20.0555 0.499998H25.8305L32.4805 16.46ZM49.6983 16.775C50.2117 17.685 50.7717 18.4783 51.3783 19.155C52.0083 19.8317 52.6967 20.3567 53.4433 20.73C54.19 21.1033 54.995 21.29 55.8583 21.29C56.8617 21.29 57.6783 21.0333 58.3083 20.52C58.9383 20.0067 59.2533 19.3067 59.2533 18.42C59.2533 17.65 59.055 17.0317 58.6583 16.565C58.285 16.0983 57.7133 15.69 56.9433 15.34C56.1967 14.9667 55.275 14.57 54.1783 14.15C53.595 13.94 52.9183 13.66 52.1483 13.31C51.4017 12.9367 50.69 12.47 50.0133 11.91C49.3367 11.3267 48.7767 10.6267 48.3333 9.81C47.89 8.97 47.6683 7.96667 47.6683 6.8C47.6683 5.4 48.0183 4.19833 48.7183 3.195C49.4417 2.16833 50.41 1.38666 51.6233 0.849998C52.86 0.289998 54.2367 0.00999838 55.7533 0.00999838C57.3167 0.00999838 58.6583 0.278332 59.7783 0.814998C60.9217 1.32833 61.8667 1.99333 62.6133 2.81C63.3833 3.60333 63.9783 4.43167 64.3983 5.295L60.4783 7.465C60.1517 6.88167 59.755 6.35667 59.2883 5.89C58.845 5.4 58.3317 5.015 57.7483 4.735C57.165 4.43167 56.5 4.28 55.7533 4.28C54.7733 4.28 54.0383 4.51333 53.5483 4.98C53.0583 5.42333 52.8133 5.94833 52.8133 6.555C52.8133 7.16167 53.0117 7.69833 53.4083 8.165C53.805 8.60833 54.4117 9.04 55.2283 9.46C56.045 9.85667 57.0717 10.265 58.3083 10.685C59.1017 10.965 59.86 11.315 60.5833 11.735C61.33 12.155 61.995 12.6683 62.5783 13.275C63.185 13.8583 63.6517 14.5583 63.9783 15.375C64.3283 16.1683 64.5033 17.09 64.5033 18.14C64.5033 19.33 64.27 20.3917 63.8033 21.325C63.3367 22.2583 62.695 23.0517 61.8783 23.705C61.0617 24.335 60.14 24.8133 59.1133 25.14C58.11 25.49 57.0483 25.665 55.9283 25.665C54.435 25.665 53.035 25.385 51.7283 24.825C50.445 24.2417 49.325 23.46 48.3683 22.48C47.4117 21.5 46.665 20.4383 46.1283 19.295L49.6983 16.775Z" fill="url(#paint0_linear_2004_732)"/>
<defs>
<linearGradient id="paint0_linear_2004_732" x1="-1" y1="16.3913" x2="65.655" y2="21.1865" gradientUnits="userSpaceOnUse">
<stop stop-color="#79CFFF"/>
<stop offset="1" stop-color="#00AEFF"/>
</linearGradient>
</defs>
</svg>
