<svg width="16" height="16" viewBox="0 0 16 16" fill="none" xmlns="http://www.w3.org/2000/svg">
<path d="M7.83489 1.7172C9.76913 1.7172 9.99853 1.72463 10.7628 1.76054C12.726 1.85218 13.643 2.80756 13.7324 4.80625C13.7674 5.5895 13.774 5.82479 13.774 7.80862C13.774 9.79307 13.7668 10.0277 13.7324 10.811C13.6424 12.8078 12.7278 13.7651 10.7628 13.8567C9.99853 13.8926 9.77034 13.9 7.83489 13.9C5.90066 13.9 5.67126 13.8926 4.90759 13.8567C2.93955 13.7644 2.02737 12.8047 1.93802 10.8104C1.90301 10.0271 1.89576 9.79245 1.89576 7.808C1.89576 5.82417 1.90361 5.5895 1.93802 4.80563C2.02797 2.80756 2.94256 1.85156 4.90759 1.75992C5.67186 1.72463 5.90066 1.7172 7.83489 1.7172ZM7.83489 0.37793C5.86746 0.37793 5.62115 0.386598 4.84842 0.42251C2.21753 0.546345 0.755384 2.0435 0.634646 4.74433C0.599028 5.53749 0.590576 5.79012 0.590576 7.808C0.590576 9.82588 0.599028 10.0791 0.634042 10.8717C0.754781 13.57 2.21451 15.0697 4.84782 15.1935C5.62115 15.2294 5.86746 15.2381 7.83489 15.2381C9.80233 15.2381 10.0492 15.2294 10.822 15.1935C13.4504 15.0697 14.9162 13.5725 15.0351 10.8717C15.0708 10.0791 15.0792 9.82588 15.0792 7.808C15.0792 5.79012 15.0708 5.53749 15.0357 4.74495C14.9174 2.04908 13.4559 0.546964 10.8226 0.423129C10.0492 0.386598 9.80233 0.37793 7.83489 0.37793ZM7.83489 3.99266C5.78053 3.99266 4.11494 5.70096 4.11494 7.808C4.11494 9.91504 5.78053 11.624 7.83489 11.624C9.88926 11.624 11.5549 9.91566 11.5549 7.808C11.5549 5.70096 9.88926 3.99266 7.83489 3.99266ZM7.83489 10.2847C6.50134 10.2847 5.42012 9.17637 5.42012 7.808C5.42012 6.44025 6.50134 5.33131 7.83489 5.33131C9.16845 5.33131 10.2497 6.44025 10.2497 7.808C10.2497 9.17637 9.16845 10.2847 7.83489 10.2847ZM11.7022 2.95059C11.2216 2.95059 10.8322 3.34996 10.8322 3.8422C10.8322 4.33444 11.2216 4.73381 11.7022 4.73381C12.1821 4.73381 12.5709 4.33444 12.5709 3.8422C12.5709 3.34996 12.1821 2.95059 11.7022 2.95059Z" fill="url(#paint0_linear_238_10784)"/>
<defs>
<linearGradient id="paint0_linear_238_10784" x1="0.590576" y1="9.74628" x2="15.0685" y2="10.1404" gradientUnits="userSpaceOnUse">
<stop stop-color="#79CFFF"/>
<stop offset="1" stop-color="#00AEFF"/>
</linearGradient>
</defs>
</svg>
