<svg width="17" height="73" viewBox="0 0 17 73" fill="none" xmlns="http://www.w3.org/2000/svg">
<path opacity="0.25" d="M8.2002 12.3452H8.97274V72.2178C8.97274 72.4311 8.7998 72.604 8.58647 72.604C8.37314 72.604 8.2002 72.4311 8.2002 72.2178V12.3452Z" fill="white"/>
<g opacity="0.25" clip-path="url(#clip0_274_602)">
<path d="M8.70336 2.72539C8.04718 2.72259 7.7976 3.54177 7.7955 4.03391L7.90574 7.02829L6.5089 7.59649L6.511 7.10435C6.5117 6.94031 6.38919 6.81675 6.22514 6.81605C6.10228 6.77451 6.01956 6.93821 5.97802 7.06106L5.97487 7.79927L4.90681 8.20484L4.90856 7.79472C4.90927 7.63067 4.78676 7.50711 4.66355 7.5476C4.4995 7.5469 4.37594 7.66941 4.37524 7.83345L4.37243 8.48964L4.08483 8.61145C3.59199 8.77339 3.26214 9.18211 3.30088 9.71543L8.05823 9.73576L8.091 11.6635L6.56779 13.0104L6.64771 13.5029L8.65956 12.9783L10.6669 13.52L10.751 13.0283L9.23933 11.6684L9.32976 9.70018L14.0871 9.7205C14.0892 9.22836 13.7632 8.73482 13.3126 8.60986L13.0261 8.4856L13.0289 7.82941C13.0296 7.66536 12.9071 7.5418 12.743 7.5411C12.579 7.5404 12.4554 7.66291 12.4547 7.82696L12.453 8.23707L11.3476 7.78122L11.3507 7.04301C11.3514 6.87896 11.2289 6.7554 11.0649 6.7547C10.9008 6.754 10.7773 6.87651 10.8177 6.99972L10.8156 7.49186L9.4237 6.91174L9.60036 3.9596C9.6433 3.50864 9.31871 2.68701 8.70336 2.72539Z" fill="white"/>
</g>
<defs>
<clipPath id="clip0_274_602">
<rect width="11.6" height="11.6" fill="white" transform="translate(0.474609 8.92407) rotate(-44.7552)"/>
</clipPath>
</defs>
</svg>
