<svg width="33" height="71" viewBox="0 0 33 71" fill="none" xmlns="http://www.w3.org/2000/svg">
<path d="M0 63.4C0 58.4 0.804878 54.1333 2.41463 50.6C4.02439 47 6.90854 43.0333 11.0671 38.7C15.1585 34.3667 17.9756 30.6667 19.5183 27.6C21.128 24.5333 21.9329 21.3333 21.9329 18C21.9329 15 21.4299 12.9333 20.4238 11.8C19.4848 10.6 18.0762 10 16.1982 10C12.375 10 10.4634 12.3 10.4634 16.9V24.4H0V17.6C0 11.9333 1.40854 7.6 4.22561 4.6C7.04268 1.53333 11.1341 0 16.5 0C21.8659 0 25.9573 1.53333 28.7744 4.6C31.5915 7.6 33 11.9333 33 17.6C33 21.8667 31.9604 26.0333 29.8811 30.1C27.8689 34.1667 24.3476 38.8333 19.3171 44.1C16.0305 47.5667 13.8171 50.4 12.6768 52.6C11.5366 54.7333 10.9665 57.0333 10.9665 59.5V61H31.9939V71H0V63.4Z" fill="white"/>
</svg>
