<svg width="63" height="29" viewBox="0 0 63 29" fill="none" xmlns="http://www.w3.org/2000/svg">
<rect width="63" height="29" rx="14.5" fill="url(#paint0_linear_217_4248)"/>
<circle cx="48.5" cy="14.5" r="12.5" fill="white"/>
<g clip-path="url(#clip0_217_4248)">
<path d="M56.6831 14.7418C56.6964 13.8925 55.6398 13.5573 55.0029 13.5473L51.1255 13.6457L50.4107 11.8293L51.0477 11.8393C51.26 11.8426 51.4218 11.6859 51.4251 11.4736C51.4807 11.3152 51.27 11.2057 51.1116 11.1501L50.1562 11.1351L49.6471 9.74668L50.1779 9.75502C50.3902 9.75835 50.5519 9.60161 50.5014 9.44154C50.5047 9.22922 50.3479 9.06748 50.1356 9.06414L49.2863 9.0508L49.1329 8.67674C48.9306 8.03644 48.4065 7.60346 47.7156 7.6457L47.6189 13.803L45.1233 13.8169L43.4025 11.8254L42.7639 11.9216L43.4131 14.5333L42.6822 17.1234L43.3175 17.2396L45.1 15.3031L47.6461 15.4493L47.5494 21.6066C48.1864 21.6166 48.83 21.202 48.9984 20.6206L49.1635 20.2515L50.0128 20.2649C50.2251 20.2682 50.3868 20.1115 50.3902 19.8991C50.3935 19.6868 50.2368 19.5251 50.0245 19.5218L49.4936 19.5134L50.1 18.0894L51.0555 18.1044C51.2678 18.1078 51.4295 17.951 51.4329 17.7387C51.4362 17.5264 51.2795 17.3646 51.1194 17.4152L50.4824 17.4052L51.2539 15.6122L55.0723 15.8845C55.6554 15.9468 56.7237 15.5388 56.6831 14.7418Z" fill="url(#paint1_linear_217_4248)"/>
</g>
<g clip-path="url(#clip1_217_4248)">
<path d="M24.9027 9.87589C25.1676 10.1263 25.3222 10.4717 25.3326 10.8362C25.3429 11.2006 25.208 11.5542 24.9577 11.8192L17.166 20.0692C17.0398 20.2027 16.888 20.3095 16.7198 20.3833C16.5515 20.4572 16.3702 20.4965 16.1864 20.4991C16.0027 20.5016 15.8203 20.4674 15.6501 20.3983C15.4798 20.3291 15.3252 20.2266 15.1952 20.0967L11.0702 15.9717C10.8273 15.7111 10.6951 15.3663 10.7014 15.0101C10.7077 14.6539 10.852 14.314 11.1039 14.0621C11.3558 13.8102 11.6957 13.6659 12.0519 13.6596C12.4081 13.6533 12.7529 13.7855 13.0135 14.0284L16.1394 17.1524L22.9594 9.93089C23.2098 9.66597 23.5552 9.51135 23.9197 9.50104C24.2841 9.49073 24.6377 9.62556 24.9027 9.87589Z" fill="white"/>
</g>
<defs>
<linearGradient id="paint0_linear_217_4248" x1="-4.5888e-07" y1="18.2826" x2="62.7691" y2="22.0894" gradientUnits="userSpaceOnUse">
<stop stop-color="#79CFFF"/>
<stop offset="1" stop-color="#00AEFF"/>
</linearGradient>
<linearGradient id="paint1_linear_217_4248" x1="43.302" y1="11.4001" x2="51.4066" y2="20.2452" gradientUnits="userSpaceOnUse">
<stop stop-color="#79CFFF"/>
<stop offset="1" stop-color="#00AEFF"/>
</linearGradient>
<clipPath id="clip0_217_4248">
<rect width="15.0152" height="15.0152" fill="white" transform="translate(48.7812 3.99902) rotate(45.8999)"/>
</clipPath>
<clipPath id="clip1_217_4248">
<rect width="16" height="12" fill="white" transform="translate(10 9)"/>
</clipPath>
</defs>
</svg>
