<svg width="76" height="68" viewBox="0 0 76 68" fill="none" xmlns="http://www.w3.org/2000/svg">
<path opacity="0.2" d="M0.896777 6.15275C-1.82452 10.1825 2.23251 15.0684 5.27901 17.0932L24.3222 28.655L22.0937 39.5806L19.0472 37.5558C18.0317 36.8809 16.7598 37.1303 16.0795 38.1377C15.3153 38.7246 15.9907 39.9033 16.5822 40.6613L21.152 43.6985L19.2686 51.9343L16.7299 50.2469C15.7144 49.572 14.4425 49.8214 14.1861 50.7457C13.5058 51.7532 13.7572 53.0149 14.7727 53.6899L18.8347 56.3896L18.4058 58.6588C17.3803 62.3561 18.5584 66.0583 22.0289 68L41.7583 38.7839L53.8605 46.4625L55.9454 61.3496L59.3321 62.8707L64.3657 48.3359L76 38.1881L73.2937 35.6596L58.6228 39.4103L46.7769 30.8075L66.5063 1.59141C63.4598 -0.433381 59.0526 -0.443269 56.4201 1.82102L54.4679 3.07787L50.4059 0.378138C49.3904 -0.296791 48.1185 -0.047401 47.4382 0.960049C46.7579 1.9675 47.0093 3.22929 48.0248 3.90422L50.5635 5.59154L43.1787 10.5358L38.609 7.49859C37.5935 6.82366 36.3216 7.07305 35.6413 8.0805C34.9609 9.08795 35.2123 10.3497 36.144 10.6041L39.1905 12.6289L29.8535 18.8299L12.2548 5.67374C9.63227 3.56582 3.19412 2.20608 0.896777 6.15275Z" fill="url(#paint0_linear_374_34467)"/>
<defs>
<linearGradient id="paint0_linear_374_34467" x1="-5.53569e-07" y1="42.8696" x2="75.9261" y2="45.2386" gradientUnits="userSpaceOnUse">
<stop stop-color="#79CFFF"/>
<stop offset="1" stop-color="#00AEFF"/>
</linearGradient>
</defs>
</svg>
