<svg width="16" height="14" viewBox="0 0 16 14" fill="none" xmlns="http://www.w3.org/2000/svg">
<path d="M14.9995 0.666112L1.4162 5.91611C0.499531 6.24944 0.499531 6.83278 1.24953 6.99944L4.6662 8.08278L5.99953 12.0828C6.1662 12.4994 6.08286 12.6661 6.49953 12.6661C6.83286 12.6661 6.99953 12.4994 7.1662 12.3328C7.24953 12.2494 7.99953 11.4994 8.83286 10.6661L12.3329 13.2494C12.9995 13.5828 13.4162 13.4161 13.5829 12.6661L15.9162 1.74944C16.1662 0.832778 15.5829 0.332778 14.9995 0.666112ZM13.2495 3.16611L6.74953 9.08278L6.49953 11.8328L5.1662 7.83278L12.8329 2.99944C13.1662 2.74944 13.4995 2.91611 13.2495 3.16611Z" fill="url(#paint0_linear_238_10781)"/>
<defs>
<linearGradient id="paint0_linear_238_10781" x1="0.706299" y1="8.664" x2="15.9589" y2="9.16995" gradientUnits="userSpaceOnUse">
<stop stop-color="#79CFFF"/>
<stop offset="1" stop-color="#00AEFF"/>
</linearGradient>
</defs>
</svg>
