<svg width="25" height="25" viewBox="0 0 25 25" fill="none" xmlns="http://www.w3.org/2000/svg">
<path d="M12.9611 24.7445C14.4352 24.731 14.9711 22.8834 14.9611 21.7779L14.6233 15.0549L17.744 13.7365L17.7541 14.8421C17.7574 15.2106 18.0363 15.4845 18.4049 15.4811C18.6821 15.5707 18.863 15.2005 18.9526 14.9233L18.9375 13.265L21.3244 12.3218L21.3328 13.2431C21.3362 13.6116 21.6151 13.8855 21.8907 13.7909C22.2592 13.7875 22.5331 13.5086 22.5297 13.1401L22.5163 11.666L23.1586 11.3837C24.2608 11.0051 24.9895 10.0771 24.8864 8.88026L14.1994 8.97771L14.0678 4.64846L17.4488 1.5771L17.2545 0.473222L12.7511 1.71207L8.2258 0.55555L8.05162 1.66279L11.4881 4.67198L11.3442 9.09588L0.657167 9.19333C0.667248 10.2989 1.41436 11.3977 2.43031 11.6649L3.07774 11.9354L3.09118 13.4095C3.09454 13.778 3.37345 14.0518 3.74197 14.0485C4.11049 14.0451 4.38435 13.7662 4.38099 13.3977L4.37259 12.4764L6.86934 13.4671L6.88446 15.1255C6.88782 15.494 7.16673 15.7679 7.53524 15.7645C7.90376 15.7611 8.17763 15.4822 8.08298 15.2067L8.0729 14.1011L11.2171 15.3624L10.909 21.9991C10.8261 23.0133 11.58 24.8492 12.9611 24.7445Z" fill="url(#paint0_linear_217_4073)"/>
<defs>
<linearGradient id="paint0_linear_217_4073" x1="18.1825" y1="1.3844" x2="3.18544" y2="15.8268" gradientUnits="userSpaceOnUse">
<stop stop-color="#79CFFF"/>
<stop offset="1" stop-color="#00AEFF"/>
</linearGradient>
</defs>
</svg>
