<svg width="20" height="12" viewBox="0 0 20 12" fill="none" xmlns="http://www.w3.org/2000/svg">
<path d="M19.1302 9.23666C18.6948 8.71395 18.1999 8.24547 17.7214 7.7924C17.5512 7.63127 17.3753 7.46468 17.2057 7.29904C16.7187 6.82296 16.701 6.6441 17.0865 6.10333C17.3532 5.73058 17.636 5.35734 17.9095 4.99637C18.1576 4.66888 18.4141 4.3302 18.66 3.99043L18.7105 3.92057C19.1804 3.27036 19.6664 2.59803 19.925 1.78697C19.9922 1.57298 20.0627 1.25809 19.9014 0.994786C19.7403 0.731698 19.4277 0.651434 19.2066 0.613945C19.0972 0.595393 18.9886 0.592861 18.8878 0.592861L15.8104 0.590659L15.785 0.590439C15.3197 0.590439 15.0061 0.809705 14.8264 1.26085C14.6549 1.69189 14.4664 2.15091 14.2514 2.58735C13.8235 3.45644 13.28 4.45743 12.4936 5.29227L12.4604 5.32778C12.3675 5.42758 12.2623 5.5406 12.1854 5.5406C12.1736 5.5406 12.1608 5.53835 12.1463 5.53378C11.9834 5.4703 11.874 5.07598 11.879 4.89255C11.8791 4.89001 11.8791 4.88748 11.8791 4.88495L11.877 1.32812C11.877 1.31579 11.8761 1.30357 11.8745 1.29134C11.7962 0.713146 11.6228 0.353224 10.9676 0.224901C10.9502 0.221433 10.9324 0.219727 10.9147 0.219727H7.71479C7.19346 0.219727 6.90621 0.431617 6.63618 0.748765C6.5633 0.833543 6.41158 1.01004 6.48678 1.22413C6.56308 1.44141 6.81075 1.48788 6.8914 1.50296C7.29173 1.57915 7.51738 1.82402 7.58129 2.25187C7.69288 2.99484 7.70659 3.78784 7.62445 4.74754C7.60155 5.01426 7.55625 5.22026 7.4816 5.39626C7.46426 5.43733 7.40277 5.57138 7.34006 5.57143C7.32013 5.57143 7.2625 5.56361 7.15751 5.49128C6.90929 5.32123 6.72768 5.07856 6.51595 4.77881C5.79567 3.76087 5.19116 2.63948 4.66762 1.34981C4.47346 0.875051 4.11084 0.609266 3.6461 0.601449C3.13545 0.593686 2.67247 0.589943 2.23091 0.589943C1.74845 0.589943 1.30116 0.594402 0.864385 0.603486C0.49048 0.610092 0.231852 0.722175 0.0957664 0.936873C-0.0405393 1.15174 -0.0316761 1.43398 0.122136 1.77563C1.3534 4.51292 2.46978 6.50317 3.742 8.22912C4.63344 9.43682 5.52757 10.2728 6.55559 10.8597C7.63866 11.4793 8.85242 11.7805 10.2661 11.7805C10.4264 11.7805 10.5921 11.7766 10.7592 11.7688C11.5806 11.7288 11.8854 11.4314 11.9239 10.6316C11.9423 10.2228 11.987 9.79416 12.1879 9.42856C12.3147 9.19823 12.433 9.19823 12.4718 9.19823C12.5467 9.19823 12.6395 9.23269 12.7392 9.29727C12.918 9.41398 13.0713 9.57032 13.197 9.7069C13.3153 9.83666 13.4323 9.96773 13.5494 10.0989C13.8021 10.3819 14.0634 10.6745 14.3363 10.952C14.9337 11.5598 15.5918 11.8271 16.3477 11.7691H19.1692C19.1752 11.7691 19.1813 11.7689 19.1873 11.7685C19.4684 11.7499 19.7119 11.594 19.8553 11.3406C20.033 11.0268 20.0294 10.6264 19.8457 10.2694C19.6374 9.86561 19.3671 9.52066 19.1302 9.23666Z" fill="url(#paint0_linear_238_10795)"/>
<defs>
<linearGradient id="paint0_linear_238_10795" x1="-0.000244286" y1="7.50804" x2="19.9532" y2="8.47171" gradientUnits="userSpaceOnUse">
<stop stop-color="#79CFFF"/>
<stop offset="1" stop-color="#00AEFF"/>
</linearGradient>
</defs>
</svg>
