<svg width="17" height="17" viewBox="0 0 17 17" fill="none" xmlns="http://www.w3.org/2000/svg">
<path d="M0.666992 16.3333L1.78526 12.2675C1.09521 11.0773 0.732616 9.72819 0.733279 8.34476C0.735268 4.01962 4.27168 0.5 8.6168 0.5C10.7254 0.50066 12.7047 1.31806 14.1935 2.80111C15.6817 4.28417 16.501 6.25542 16.5003 8.35201C16.4983 12.6778 12.9619 16.1974 8.6168 16.1974C7.29769 16.1968 5.9978 15.8676 4.84639 15.2422L0.666992 16.3333ZM5.03995 13.8218C6.15092 14.4782 7.21152 14.8714 8.61415 14.872C12.2255 14.872 15.1673 11.9468 15.1693 8.35069C15.1706 4.74729 12.2427 1.82604 8.61945 1.82472C5.00548 1.82472 2.06565 4.74993 2.06432 8.34542C2.06366 9.8133 2.49585 10.9124 3.2217 12.0623L2.55949 14.469L5.03995 13.8218ZM12.5881 10.217C12.539 10.1352 12.4078 10.0864 12.2102 9.98812C12.0134 9.88983 11.0449 9.41549 10.8639 9.35017C10.6836 9.28486 10.5524 9.25187 10.4205 9.44847C10.2892 9.64441 9.91139 10.0864 9.79671 10.217C9.68204 10.3477 9.5667 10.3642 9.36982 10.2659C9.17295 10.1676 8.53792 9.96108 7.78556 9.29278C7.20025 8.77292 6.80451 8.13101 6.68984 7.93441C6.57516 7.73847 6.6779 7.63226 6.77601 7.53462C6.86483 7.44688 6.97288 7.30569 7.07165 7.1909C7.17174 7.07743 7.20422 6.99563 7.27051 6.86434C7.33614 6.73372 7.30366 6.61892 7.25394 6.52063C7.20422 6.42299 6.81048 5.45781 6.64675 5.06528C6.48634 4.6833 6.32393 4.73476 6.20329 4.72882L5.82545 4.72222C5.6942 4.72222 5.48076 4.77104 5.30046 4.96764C5.12016 5.16424 4.61107 5.63792 4.61107 6.60309C4.61107 7.56826 5.31703 8.50045 5.41514 8.63108C5.5139 8.7617 6.80385 10.7422 8.77987 11.5913C9.24984 11.7931 9.61707 11.9139 9.90277 12.0042C10.3747 12.1533 10.8043 12.1322 11.1437 12.0821C11.5222 12.026 12.309 11.6077 12.4734 11.1499C12.6378 10.6914 12.6378 10.2989 12.5881 10.217Z" fill="url(#paint0_linear_238_10787)"/>
<defs>
<linearGradient id="paint0_linear_238_10787" x1="0.666992" y1="10.4819" x2="16.488" y2="10.9236" gradientUnits="userSpaceOnUse">
<stop stop-color="#79CFFF"/>
<stop offset="1" stop-color="#00AEFF"/>
</linearGradient>
</defs>
</svg>
